<svg width="22" height="22" viewBox="0 0 22 22" fill="none" xmlns="http://www.w3.org/2000/svg">
<path d="M17.4167 15.5833V10.8166C16.9583 10.9083 16.5 11 16.0417 11H15.5833V16.5H6.41667V10.0833C6.41667 7.51665 8.43333 5.49998 11 5.49998C11.0917 4.30831 11.6417 3.29998 12.375 2.47498C12.1 2.10831 11.55 1.83331 11 1.83331C9.99167 1.83331 9.16667 2.65831 9.16667 3.66665V3.94165C6.41667 4.76665 4.58333 7.24165 4.58333 10.0833V15.5833L2.75 17.4166V18.3333H19.25V17.4166L17.4167 15.5833ZM9.16667 19.25C9.16667 20.2583 9.99167 21.0833 11 21.0833C12.0083 21.0833 12.8333 20.2583 12.8333 19.25H9.16667ZM19.25 5.95831C19.25 7.69998 17.7833 9.16665 16.0417 9.16665C14.3 9.16665 12.8333 7.69998 12.8333 5.95831C12.8333 4.21665 14.3 2.74998 16.0417 2.74998C17.7833 2.74998 19.25 4.21665 19.25 5.95831Z" fill="black"/>
</svg>
